<?xml version="1.0" encoding="utf-8"?>
<!-- Generator: Adobe Illustrator 22.1.0, SVG Export Plug-In . SVG Version: 6.00 Build 0)  -->
<svg version="1.1" id="Слой_1" xmlns="http://www.w3.org/2000/svg" xmlns:xlink="http://www.w3.org/1999/xlink" x="0px" y="0px"
	 width="19px" height="17px" viewBox="0 0 19 17" enable-background="new 0 0 19 17" xml:space="preserve">
<g>
	<path fill="#020203" d="M9.5,5.362"/>
	<path fill="#4696D2" d="M9.5,6.521c-0.64,0-1.159-0.519-1.159-1.159V1.159C8.341,0.519,8.86,0,9.5,0
		c0.641,0,1.159,0.519,1.159,1.159v4.203C10.659,6.002,10.141,6.521,9.5,6.521z"/>
</g>
<g>
	<path fill="#4696D2" d="M13.222,9.226c-0.489,0-0.943-0.312-1.103-0.801c-0.198-0.609,0.136-1.263,0.744-1.461l3.997-1.299
		c0.612-0.199,1.264,0.137,1.461,0.744c0.198,0.609-0.136,1.263-0.744,1.461L13.58,9.169C13.461,9.207,13.34,9.226,13.222,9.226z"/>
</g>
<g>
	<path fill="#020203" d="M14.27,15.841"/>
	<path fill="#4696D2" d="M14.271,17c-0.358,0-0.712-0.165-0.938-0.478l-2.471-3.4c-0.377-0.519-0.262-1.243,0.256-1.619
		c0.518-0.379,1.243-0.264,1.619,0.256l2.471,3.4c0.377,0.519,0.262,1.243-0.256,1.619C14.746,16.929,14.508,17,14.271,17z"/>
</g>
<g>
	<path fill="#4696D2" d="M4.729,17c-0.236,0-0.475-0.071-0.681-0.221c-0.518-0.377-0.633-1.102-0.256-1.62l2.47-3.4
		c0.377-0.519,1.101-0.633,1.62-0.257c0.518,0.377,0.633,1.102,0.256,1.62l-2.47,3.4C5.441,16.835,5.087,17,4.729,17z"/>
</g>
<g>
	<path fill="#4696D2" d="M5.779,9.226c-0.119,0-0.239-0.019-0.358-0.057L1.423,7.87C0.814,7.672,0.481,7.018,0.679,6.409
		C0.876,5.8,1.53,5.467,2.14,5.665l3.997,1.299c0.609,0.198,0.942,0.852,0.744,1.461C6.722,8.914,6.268,9.226,5.779,9.226z"/>
</g>
</svg>
