<?xml version="1.0" encoding="utf-8"?>
<!-- Generator: Adobe Illustrator 22.1.0, SVG Export Plug-In . SVG Version: 6.00 Build 0)  -->
<svg version="1.1" id="Слой_1" xmlns="http://www.w3.org/2000/svg" xmlns:xlink="http://www.w3.org/1999/xlink" x="0px" y="0px"
	 width="19px" height="17px" viewBox="0 0 19 17" enable-background="new 0 0 19 17" xml:space="preserve">
<path fill="#E20A13" d="M16.899,4.34c-0.852-1.529-2.19-2.774-3.764-3.529l-0.042,0.014c-0.137,0.039-0.274,0.084-0.408,0.136
	c-0.402,0.154-0.781,0.365-1.103,0.655c-0.772,0.672-1.258,1.692-1.202,2.725c0.491,0.123,0.982,0.291,1.438,0.52
	c0.517,0.259,0.991,0.597,1.371,1.042c0.75,0.856,1.021,2.042,0.938,3.158c-0.016,0.207-0.047,0.412-0.093,0.614
	c-0.274,1.222-1.063,2.327-2.142,2.958c-0.095,0.055-0.191,0.107-0.29,0.155c-0.052,0.025-0.104,0.049-0.157,0.072
	c-0.07,0.03-0.141,0.06-0.213,0.086c-0.045,0.017-0.09,0.032-0.135,0.048c-0.046,0.016-0.092,0.03-0.139,0.045
	c-0.02,0.006-0.041,0.012-0.061,0.018c-0.72,0.208-1.491,0.245-2.224,0.094c-0.273-0.056-0.54-0.138-0.798-0.247
	c-1.065-0.439-1.953-1.278-2.478-2.304c-0.016-0.031-0.033-0.062-0.048-0.094c-0.115-0.234-0.211-0.477-0.289-0.725
	C5.048,9.74,5.036,9.7,5.024,9.659C4.795,8.863,4.749,8.014,4.858,7.194c0.224-1.579,1.017-3.056,2.149-4.168
	c1.181-1.111,2.691-1.859,4.28-2.159c0.057-0.01,0.114-0.019,0.171-0.028c0.531-0.083,1.073-0.13,1.606-0.049
	C10.99-0.197,8.508-0.256,6.376,0.594C4.994,1.137,3.77,2.062,2.847,3.225c-1.155,1.457-1.817,3.306-1.82,5.17
	C0.995,9.891,1.383,11.39,2.118,12.69c0.883,1.565,2.271,2.836,3.909,3.568c1.674,0.76,3.599,0.938,5.388,0.526
	c1.784-0.406,3.421-1.419,4.591-2.827c1.238-1.477,1.96-3.389,1.967-5.321C18.01,7.141,17.629,5.641,16.899,4.34z"/>
</svg>
